<?xml version="1.0" standalone="no"?>
<!DOCTYPE svg PUBLIC "-//W3C//DTD SVG 20010904//EN"
 "http://www.w3.org/TR/2001/REC-SVG-20010904/DTD/svg10.dtd">
<svg version="1.0" xmlns="http://www.w3.org/2000/svg"
 width="220.000000pt" height="435.000000pt" viewBox="0 0 220.000000 435.000000"
 preserveAspectRatio="xMidYMid meet">
<metadata>
Created by potrace 1.15, written by Peter Selinger 2001-2017
</metadata>
<g transform="translate(0.000000,435.000000) scale(0.100000,-0.100000)"
fill="#000000" stroke="none">
<path d="M1080 4326 c0 -9 -7 -12 -19 -9 -12 3 -20 -2 -24 -16 -3 -12 -13 -21
-25 -21 -24 0 -32 -10 -71 -84 -31 -58 -42 -138 -21 -151 5 -3 7 -12 3 -20 -3
-11 2 -15 17 -15 20 0 22 -4 16 -31 -3 -17 -6 -40 -6 -50 0 -17 -8 -19 -72
-19 -71 0 -75 2 -132 45 -33 24 -106 90 -163 146 -81 78 -120 108 -171 131
-106 48 -183 67 -290 69 -83 2 -97 -1 -100 -15 -2 -9 3 -19 11 -22 8 -3 13
-13 10 -23 -8 -32 80 -41 206 -20 90 15 106 6 251 -140 89 -90 131 -125 185
-152 79 -41 155 -68 220 -77 l45 -7 -61 -50 c-84 -69 -123 -88 -167 -80 -58
11 -134 42 -205 85 -74 45 -87 48 -87 21 0 -14 -5 -18 -20 -14 -63 17 25 -62
117 -104 43 -20 79 -28 139 -31 113 -6 170 9 268 70 78 50 83 55 80 83 -3 17
-7 50 -10 75 l-5 45 19 -24 c24 -29 68 -31 88 -3 12 18 19 19 56 10 35 -8 46
-6 67 10 18 14 25 27 23 46 -2 23 1 26 25 26 31 0 63 -40 63 -78 0 -23 20 -41
21 -20 0 7 4 4 8 -7 8 -19 9 -18 21 8 16 33 35 36 25 5 -3 -13 -9 -33 -12 -46
-4 -16 -11 -22 -23 -19 -15 4 -16 -5 -16 -74 1 -62 4 -78 14 -74 8 3 15 5 17
5 1 0 -1 19 -7 42 -7 35 -6 45 7 55 10 6 14 16 11 22 -7 11 39 61 56 61 6 0 8
9 4 23 -3 12 -6 34 -6 49 0 15 -7 33 -15 42 -8 8 -15 19 -15 25 0 6 -5 11 -10
11 -6 0 -8 20 -5 53 5 50 -17 127 -37 127 -5 0 -8 9 -8 20 0 11 -7 20 -15 20
-8 0 -23 9 -34 21 -11 12 -24 18 -29 15 -5 -3 -15 1 -22 9 -7 8 -19 15 -26 15
-8 0 -14 5 -14 10 0 6 -7 10 -15 10 -8 0 -15 -4 -15 -10 0 -5 -6 -8 -12 -6 -7
3 -34 7 -60 10 -37 4 -48 2 -48 -8z"/>
<path d="M1110 3777 l-35 -12 2 -80 c3 -113 30 -130 120 -77 26 16 53 29 58
29 15 0 100 141 91 150 -3 3 -30 -19 -61 -48 -48 -45 -63 -54 -108 -60 -36 -5
-56 -3 -65 5 -20 19 11 40 56 39 20 -1 41 1 46 4 16 10 -19 23 -63 23 -24 0
-42 3 -39 6 3 3 30 5 59 6 31 0 47 3 39 8 -31 16 -66 18 -100 7z"/>
<path d="M925 3533 c-34 -45 -39 -59 -13 -35 13 12 37 22 53 22 l28 0 -45 -42
c-24 -24 -54 -56 -66 -73 l-21 -30 -1 28 c0 16 5 38 11 50 11 23 -11 2 -78
-76 -32 -37 -33 -37 -62 -22 -39 20 -50 70 -28 126 16 40 6 54 -21 27 -15 -15
-16 -3 -1 23 18 35 -22 6 -63 -43 -42 -52 -58 -81 -58 -106 0 -10 -9 -29 -20
-42 -27 -31 -25 -50 5 -50 14 0 34 -9 46 -21 15 -15 28 -19 48 -14 21 4 36 0
58 -19 21 -18 48 -28 87 -32 93 -11 69 -29 -56 -41 -120 -12 -148 -19 -148
-35 0 -7 14 -8 38 -4 174 32 211 32 241 5 17 -16 21 -30 19 -57 -3 -33 -8 -40
-52 -61 -65 -32 -238 -41 -268 -14 -22 20 -168 26 -168 7 0 -17 52 -61 94 -78
45 -19 151 -22 140 -5 -4 8 4 9 27 4 21 -4 46 -21 65 -42 26 -30 35 -35 58
-29 15 4 31 17 36 30 4 13 16 26 25 30 23 9 25 8 25 -9 0 -21 10 -19 38 8 17
15 26 18 29 9 3 -6 9 -10 14 -6 5 3 9 -3 9 -12 0 -10 3 -15 6 -12 3 4 21 0 39
-8 29 -12 38 -12 69 1 33 14 38 13 76 -6 22 -12 40 -22 40 -24 0 -1 -24 -19
-52 -38 -57 -39 -127 -54 -158 -35 -13 9 -29 7 -66 -6 -73 -26 -103 -30 -130
-16 -20 11 -31 11 -66 -1 -28 -9 -36 -15 -24 -17 16 -3 18 -11 14 -58 -3 -33
0 -55 6 -57 6 -3 -15 -30 -46 -61 -32 -31 -52 -55 -46 -53 7 1 14 -6 16 -15 2
-13 -3 -18 -20 -18 -18 0 -20 2 -8 10 19 13 -46 13 -75 0 -18 -8 -18 -9 5 -10
23 -1 23 -2 5 -10 -13 -5 -24 -4 -30 4 -5 7 -31 18 -57 25 -26 8 -52 19 -58
26 -5 6 -39 27 -75 45 -62 32 -67 32 -83 16 -11 -11 -17 -33 -17 -65 0 -59 18
-83 90 -116 70 -33 132 -40 186 -22 24 8 58 18 75 21 28 6 32 4 36 -19 4 -19
0 -30 -13 -38 -21 -13 -7 -39 16 -31 20 8 62 -76 44 -87 -9 -5 -10 -11 -2 -21
12 -14 22 -139 11 -135 -12 3 -36 -36 -33 -52 2 -9 4 -19 4 -23 1 -4 19 -13
41 -19 21 -7 37 -16 34 -20 -3 -5 3 -9 13 -9 10 0 14 -4 8 -8 -14 -10 -12 -46
3 -64 6 -8 10 -25 7 -38 -2 -12 -2 -20 2 -16 3 3 12 -3 20 -14 13 -19 14 -19
32 -1 10 10 32 38 49 63 17 25 45 51 62 58 22 9 29 17 25 30 -4 11 1 24 12 32
10 7 23 22 29 33 15 28 38 33 29 6 -5 -17 -2 -21 14 -21 27 0 26 -10 -1 -46
-12 -16 -15 -23 -8 -16 20 17 40 15 40 -5 -1 -29 -32 -79 -78 -127 -54 -57
-45 -60 14 -6 49 45 69 50 78 18 15 -56 7 -79 -49 -137 -63 -67 -72 -86 -18
-42 48 40 55 39 47 -4 -8 -45 5 -45 42 3 61 77 94 185 88 289 -3 41 -9 84 -15
95 -7 12 -7 23 -1 31 6 7 16 31 23 55 7 24 22 50 33 58 11 8 17 14 13 14 -15
0 -87 -65 -87 -78 0 -7 -5 -10 -10 -7 -6 3 -7 18 -3 33 5 22 4 25 -8 16 -15
-12 -79 -27 -79 -18 0 11 55 111 76 140 13 17 24 36 24 42 0 16 60 113 100
162 19 23 65 72 103 109 94 95 92 101 -14 30 -70 -47 -115 -102 -212 -254 -87
-139 -141 -205 -166 -205 -10 0 -35 16 -57 35 -25 23 -31 32 -16 25 27 -13 47
-3 101 51 75 76 113 137 128 207 8 37 13 86 11 110 l-3 43 60 26 c64 28 157
39 231 28 39 -5 43 -9 47 -38 4 -30 4 -30 5 6 l2 38 48 -6 c26 -4 60 -13 76
-21 37 -18 38 -18 28 4 -10 20 -10 32 2 50 4 7 2 19 -5 28 -7 9 -14 23 -15 32
-2 8 -8 18 -15 23 -13 8 -117 24 -136 20 -7 -1 -13 3 -13 8 0 11 88 59 130 71
24 7 22 9 -22 28 -27 12 -48 25 -48 30 0 34 100 48 163 24 39 -16 59 -10 39
10 -19 19 -14 41 16 65 26 21 26 22 5 23 -12 0 -24 4 -27 8 -8 14 45 59 96 82
25 11 49 26 52 33 4 6 4 -4 1 -23 -5 -30 -48 -90 -64 -88 -19 2 -27 -5 -29
-25 -1 -21 3 -24 48 -26 56 -2 70 12 70 73 0 26 4 34 13 30 10 -3 14 4 15 26
0 22 -4 30 -16 30 -13 0 -12 3 6 16 12 8 22 22 22 30 0 8 7 14 15 14 24 0 19
65 -7 90 -31 29 -36 26 -31 -27 4 -55 -12 -94 -42 -100 -40 -8 -76 -4 -107 11
-17 9 -36 16 -41 16 -17 0 -86 -34 -87 -42 0 -11 25 -10 54 3 19 9 31 8 55 -2
17 -8 31 -17 31 -20 0 -3 -15 -22 -32 -43 -24 -26 -46 -40 -77 -47 -24 -5 -55
-19 -69 -29 -33 -27 -75 -25 -125 4 -23 14 -72 36 -109 51 -37 15 -72 33 -79
41 -10 12 -4 14 32 15 43 0 43 1 -31 23 -96 28 -351 138 -357 152 -11 30 92
139 137 146 22 3 20 6 -24 31 -27 15 -49 27 -50 27 0 0 -10 -13 -21 -27z m120
-300 c90 -46 179 -104 205 -134 3 -3 14 -9 25 -13 16 -6 17 -9 5 -16 -26 -16
-53 -11 -125 24 -89 42 -275 173 -275 193 0 23 41 10 165 -54z m-79 -737 c-4
-18 -27 -37 -74 -65 -38 -22 -91 -60 -118 -84 -58 -52 -76 -50 -111 14 l-22
40 32 29 c18 16 40 30 49 30 9 0 20 5 23 10 3 6 23 10 43 10 20 0 66 13 102
29 70 30 86 27 76 -13z"/>
<path d="M677 541 c-14 -28 -12 -131 2 -131 4 0 17 7 29 16 19 13 23 13 28 0
3 -8 4 -25 2 -38 -2 -18 -9 -23 -35 -23 -22 0 -37 -8 -54 -29 -12 -16 -38 -35
-58 -43 -20 -9 -54 -29 -76 -47 -30 -23 -50 -31 -85 -32 -57 -2 -96 -11 -136
-31 -29 -15 -34 -15 -75 5 -24 12 -53 19 -65 16 -12 -3 -30 2 -44 14 l-23 19
43 29 c23 16 56 40 74 54 17 14 48 37 68 50 68 45 59 51 -60 45 -59 -3 -131
-8 -159 -11 l-53 -5 0 -200 0 -199 1100 0 1100 0 0 200 0 200 -35 0 c-33 0
-35 -2 -35 -34 0 -18 7 -53 16 -77 22 -63 12 -145 -21 -171 -14 -11 -25 -25
-25 -33 0 -17 -47 -25 -60 -10 -7 9 -7 21 0 41 15 39 4 66 -14 33 -7 -14 -16
-38 -20 -53 -6 -24 -11 -27 -39 -24 l-32 3 3 53 c3 63 -14 63 -24 1 -8 -50
-44 -73 -71 -46 -14 14 -15 23 -5 68 7 29 10 54 8 57 -6 6 -36 -66 -36 -87 0
-30 -16 -43 -51 -39 -36 3 -37 7 -24 63 6 30 6 30 -32 -13 -31 -35 -44 -42
-73 -42 -34 1 -70 19 -70 35 0 4 33 40 73 79 88 88 148 159 151 183 3 15 -6
19 -43 23 -25 3 -56 1 -69 -4 -15 -6 -26 -6 -34 2 -7 7 -22 12 -34 12 -12 0
-25 7 -28 16 -3 8 -11 12 -17 9 -6 -4 -8 -14 -5 -22 5 -12 1 -14 -16 -9 -13 4
-174 10 -359 13 l-337 6 -7 -22 c-3 -12 -3 -45 0 -74 8 -63 -3 -77 -68 -84
-38 -5 -48 -1 -70 21 -15 15 -27 30 -27 35 0 18 15 20 32 5 14 -14 20 -14 33
-4 8 7 15 19 15 27 0 18 28 70 53 99 19 23 14 56 -9 47 -10 -4 -14 4 -14 28
-1 32 -1 33 -15 15 -8 -11 -15 -16 -15 -12 0 4 -7 1 -15 -8 -8 -8 -15 -20 -15
-27 0 -9 -5 -8 -17 4 -13 13 -14 20 -5 29 14 14 16 58 3 58 -5 0 -16 -13 -24
-29z"/>
</g>
</svg>
