<?xml version="1.0" standalone="no"?>
<!DOCTYPE svg PUBLIC "-//W3C//DTD SVG 20010904//EN"
 "http://www.w3.org/TR/2001/REC-SVG-20010904/DTD/svg10.dtd">
<svg version="1.0" xmlns="http://www.w3.org/2000/svg"
 width="700.000000pt" height="900.000000pt" viewBox="0 0 700.000000 900.000000"
 preserveAspectRatio="xMidYMid meet">
<metadata>
Created by potrace 1.15, written by Peter Selinger 2001-2017
</metadata>
<g transform="translate(0.000000,900.000000) scale(0.100000,-0.100000)"
fill="#000000" stroke="none">
<path d="M3294 8908 c18 -45 29 -118 17 -118 -5 0 -12 13 -16 30 -11 49 -22
43 -30 -15 -3 -30 -10 -55 -14 -55 -3 0 -14 13 -24 29 -21 36 -106 93 -171
114 -64 22 -64 22 -34 -10 37 -40 68 -94 68 -120 0 -24 -14 -31 -26 -12 -8 14
-95 69 -108 69 -5 0 8 -16 30 -36 21 -19 32 -33 24 -30 -69 23 -125 35 -180
40 l-65 6 25 -20 25 -20 -50 0 -50 -1 35 -19 35 -18 -35 -4 -35 -3 44 -20 44
-21 -144 3 c-90 1 -135 -1 -119 -6 14 -5 45 -10 70 -10 82 -2 82 -21 0 -22
l-75 0 64 -22 c94 -32 87 -43 -21 -38 -83 3 -106 8 -173 40 -13 6 22 -48 53
-81 32 -35 20 -35 -37 -3 -47 27 -51 29 -51 18 0 -5 20 -21 45 -38 52 -35 56
-45 17 -45 -51 0 -132 -30 -165 -62 -31 -29 -31 -30 -4 -14 63 38 227 64 227
36 0 -5 -13 -10 -29 -10 -47 0 -151 -37 -216 -75 -68 -41 -70 -43 -63 -50 2
-3 22 4 43 15 22 11 51 20 65 20 22 -1 21 -3 -15 -22 -58 -30 -114 -76 -146
-121 -45 -62 -35 -60 34 7 61 59 123 98 188 116 29 8 25 4 -31 -48 -72 -64
-129 -147 -160 -229 -25 -67 -18 -84 9 -22 10 24 26 53 35 64 15 18 15 16 0
-20 -41 -96 -67 -184 -70 -240 -2 -43 -1 -52 5 -30 7 27 9 23 16 -34 9 -74 20
-64 28 27 6 71 42 155 83 193 25 23 26 23 15 2 -20 -39 -12 -39 16 0 14 20 28
35 30 33 2 -2 -11 -35 -30 -73 -64 -125 -82 -203 -81 -338 0 -66 6 -131 12
-145 9 -22 11 -17 11 37 1 71 17 157 37 193 21 38 62 85 69 78 3 -3 -1 -43 -9
-88 -21 -111 -20 -180 5 -281 32 -125 39 -127 32 -8 -5 83 -2 122 12 185 l18
79 13 -107 c13 -115 33 -175 34 -103 0 28 3 35 9 25 17 -28 15 -85 -3 -119
-15 -27 -17 -49 -13 -100 12 -144 29 -238 57 -306 15 -38 38 -97 50 -130 12
-33 33 -75 47 -94 19 -24 40 -89 79 -245 30 -116 67 -245 83 -286 16 -41 55
-175 87 -298 l57 -223 -89 -84 c-49 -46 -104 -91 -121 -100 -18 -9 -33 -21
-33 -27 0 -16 -51 -68 -67 -68 -7 0 -13 -6 -13 -13 0 -18 -98 -111 -137 -131
-22 -11 -39 -32 -56 -69 -36 -79 -48 -88 -94 -71 -21 7 -50 13 -65 14 -24 0
-28 -6 -43 -55 -22 -76 -38 -83 -123 -47 l-68 28 -46 -30 c-25 -17 -54 -37
-64 -43 -18 -12 -18 -14 10 -35 79 -61 91 -75 77 -91 -7 -9 -22 -17 -34 -19
-19 -3 -22 -9 -22 -48 0 -43 -1 -45 -33 -48 -26 -3 -34 1 -41 21 -14 37 -64
69 -191 122 -100 43 -122 56 -170 107 -81 85 -128 103 -265 102 -176 -1 -300
-51 -479 -194 -113 -91 -164 -163 -205 -286 -18 -54 -50 -126 -71 -159 -106
-164 -163 -392 -164 -655 -1 -208 38 -344 138 -484 121 -170 282 -263 494
-287 53 -6 100 -13 104 -15 4 -3 29 -35 55 -72 60 -86 84 -113 158 -175 54
-45 118 -115 227 -248 l37 -45 -14 -55 c-30 -111 -74 -435 -77 -559 l-3 -125
41 -70 c72 -122 132 -249 139 -295 4 -29 0 -65 -10 -100 -30 -106 -30 -120 5
-205 32 -76 35 -79 107 -124 41 -25 128 -81 194 -123 l119 -78 -32 -57 c-18
-32 -44 -74 -58 -93 -89 -118 -291 -392 -317 -430 -30 -44 -73 -124 -73 -135
0 -3 65 -5 144 -5 l144 0 17 77 c42 193 76 315 115 408 44 106 97 205 109 205
14 0 71 -22 71 -27 0 -3 -10 -18 -21 -35 -13 -17 -31 -75 -45 -139 -24 -115
-75 -282 -125 -406 -16 -40 -29 -76 -29 -78 0 -3 76 -5 169 -5 l169 0 6 38 c9
49 28 102 37 102 4 0 13 -31 20 -70 11 -63 15 -70 35 -70 25 0 25 -3 9 128 -4
35 2 39 27 20 14 -11 15 -21 8 -58 -5 -25 -9 -55 -10 -67 l0 -23 218 0 217 1
43 38 c40 35 44 43 53 107 13 98 9 94 76 78 32 -8 78 -14 103 -14 25 0 51 -4
59 -9 16 -10 10 -31 -41 -133 -15 -32 -28 -60 -28 -63 0 -3 22 -5 48 -5 l48 0
64 97 65 98 90 -4 c81 -3 93 -6 118 -30 l29 -26 -4 30 c-3 26 0 30 24 33 23 3
30 -2 42 -30 l14 -33 13 32 c14 35 22 38 159 48 41 3 111 13 155 21 88 16 71
20 162 -45 l31 -24 68 32 c37 17 65 34 62 37 -3 3 -30 1 -59 -5 -44 -8 -59 -7
-77 6 -13 8 -21 18 -17 21 4 4 84 23 178 43 186 39 396 97 445 123 47 24 65
20 136 -29 37 -25 70 -45 74 -45 10 0 105 -82 185 -159 72 -70 75 -49 6 52
-67 100 -121 157 -147 157 -12 0 -47 16 -78 36 -42 27 -53 38 -43 45 22 14 39
11 71 -12 37 -27 45 -18 29 27 -13 35 -12 38 17 66 38 39 46 35 154 -84 174
-192 212 -251 269 -410 22 -62 26 -68 51 -68 l27 0 -30 87 c-61 173 -99 227
-331 479 -67 71 -68 74 -68 127 0 51 3 57 39 90 58 52 120 85 244 129 62 22
120 47 130 56 10 9 48 75 84 146 64 128 133 245 143 245 11 0 184 -388 215
-483 60 -177 69 -255 69 -584 l1 -292 133 1 c129 1 132 1 132 22 0 12 -29 166
-64 342 -65 319 -96 501 -156 900 -55 364 -91 525 -177 795 -31 96 -58 189
-60 205 -4 26 6 44 61 112 172 214 265 420 317 703 6 36 19 76 27 90 32 49 81
232 82 300 0 82 17 110 66 110 38 0 37 -2 51 90 6 36 20 85 31 108 l21 43 -24
36 c-14 19 -27 51 -31 70 -10 52 29 213 72 299 l37 72 -32 75 c-37 89 -40 147
-11 195 l21 34 -21 32 c-25 42 -25 57 1 80 12 10 19 24 15 34 -3 9 -15 44 -27
77 -16 42 -24 90 -27 163 -5 115 4 102 -97 137 -33 12 -66 35 -97 66 -54 55
-61 85 -23 95 42 10 48 26 40 115 l-7 82 -86 89 c-47 48 -92 88 -99 88 -7 0
-22 -13 -35 -30 -16 -23 -30 -30 -54 -30 -48 0 -86 20 -81 42 3 10 -17 50 -48
98 -65 99 -74 137 -46 211 12 30 21 60 21 67 0 9 -28 12 -106 12 -91 0 -121
-4 -201 -30 -51 -17 -99 -30 -106 -30 -7 0 -23 -13 -35 -30 -12 -16 -37 -33
-55 -38 -61 -17 -63 7 -5 73 38 43 40 49 25 60 -16 11 -251 75 -276 75 -6 0
-26 -25 -46 -55 -21 -30 -40 -55 -44 -55 -4 0 -26 34 -50 75 -23 41 -46 77
-52 80 -5 4 -9 17 -9 30 0 40 -44 82 -101 95 -31 8 -55 20 -64 34 -20 30 -82
177 -117 276 -16 47 -48 119 -69 160 l-39 75 50 143 c63 179 75 251 60 363
-20 165 -59 228 -148 239 -47 5 -47 5 -55 50 -13 74 -30 310 -23 317 3 4 13
-2 21 -13 19 -25 19 -15 0 29 -20 49 -20 50 21 42 31 -5 35 -4 31 12 -3 10 -9
34 -12 53 -4 19 -23 68 -41 109 -19 41 -33 75 -31 77 1 2 20 -1 42 -6 22 -5
41 -7 43 -5 10 9 -44 79 -94 121 -30 26 -53 49 -50 51 2 3 20 0 40 -5 20 -6
36 -8 36 -4 0 3 -19 25 -42 49 -36 37 -38 41 -17 37 23 -5 23 -5 4 7 -11 7
-47 23 -80 35 l-60 22 37 7 c20 4 46 4 57 0 38 -12 22 12 -31 46 -60 39 -140
68 -185 69 -17 0 -34 4 -37 9 -6 10 58 71 74 71 6 0 10 5 10 10 0 6 -31 10
-72 11 -40 0 -66 3 -58 6 8 3 26 10 39 15 13 5 21 11 19 14 -5 4 -116 -29
-170 -51 -28 -11 -22 12 14 58 l32 40 -74 -6 c-56 -5 -92 -15 -143 -40 l-68
-34 6 26 c3 14 18 44 32 65 l25 39 -43 -7 c-57 -9 -125 -40 -172 -77 -26 -21
-38 -26 -41 -17 -2 7 -11 38 -19 68 l-15 55 -1 -50 -1 -50 -35 52 c-42 62 -59
75 -41 31z m1183 -1401 c43 -38 58 -101 58 -237 0 -95 -4 -138 -18 -180 -86
-253 -144 -333 -196 -268 -17 21 -18 14 -17 -183 l1 -204 -33 -61 c-51 -94
-205 -288 -322 -405 -109 -110 -205 -181 -268 -199 -57 -16 -205 -31 -329 -32
-145 -1 -175 13 -304 141 -129 129 -245 288 -270 373 -44 147 -140 556 -148
635 -19 171 -31 387 -23 395 10 10 72 28 72 21 0 -3 -11 -19 -25 -35 -30 -36
-28 -42 9 -28 15 5 44 10 64 10 l37 0 -40 -19 c-47 -21 -77 -51 -52 -51 9 0
19 5 22 10 3 6 11 10 17 10 6 0 4 -8 -5 -18 -23 -26 -21 -50 8 -88 35 -45 31
-56 -5 -14 l-29 35 19 -69 c11 -38 21 -69 22 -70 2 -1 16 -12 32 -24 24 -18
42 -22 106 -22 100 0 178 15 213 41 20 14 37 19 55 15 20 -5 23 -4 12 3 -8 6
-12 12 -9 16 3 3 14 -4 25 -16 29 -33 23 -140 -15 -261 -33 -106 -32 -110 12
-210 26 -58 26 -58 69 -58 44 0 88 21 88 42 0 6 -27 39 -59 73 -33 34 -63 75
-67 90 -4 16 0 56 10 95 10 44 16 111 16 189 l0 121 43 1 c37 1 100 14 87 19
-3 1 -36 4 -75 7 -38 2 -72 7 -74 9 -2 2 2 15 9 28 9 18 11 45 6 98 -11 103
-20 107 -26 9 -5 -92 -23 -118 -34 -51 -6 38 -26 57 -26 25 0 -19 -11 -19 -83
0 -70 18 -144 55 -209 103 -53 40 -49 50 20 51 26 1 35 -4 44 -26 l12 -28 3
26 4 26 197 12 c108 7 209 15 223 18 21 4 27 0 33 -19 6 -22 7 -23 18 -3 17
30 23 32 112 39 44 4 91 10 104 13 22 5 23 4 17 -33 -7 -37 -6 -38 9 -19 8 11
16 25 16 31 0 21 24 31 85 38 52 6 58 5 45 -7 -32 -31 -264 -180 -302 -195
-37 -15 -41 -15 -53 1 -21 29 -28 19 -22 -28 4 -25 2 -47 -3 -50 -20 -12 -57
41 -64 91 -4 27 -9 63 -13 79 -11 56 -21 -4 -14 -82 5 -57 12 -78 31 -98 25
-27 48 -29 107 -10 18 6 21 4 16 -13 -3 -12 2 -35 11 -53 9 -18 16 -38 16 -44
0 -8 27 -15 78 -20 113 -11 128 -11 140 1 8 9 -8 18 -61 34 -40 12 -79 25 -87
28 -8 3 -18 5 -21 4 -3 0 -6 5 -6 13 0 8 7 11 15 7 11 -4 14 -1 9 11 -4 11 -2
14 9 10 10 -4 14 3 14 26 0 23 10 41 40 71 46 46 60 50 60 15 0 -58 47 -105
104 -105 28 0 86 44 86 66 0 8 -4 14 -10 14 -5 0 -10 7 -10 15 0 8 5 15 10 15
6 0 10 10 10 22 0 21 0 21 21 2 16 -15 20 -28 17 -62 l-3 -44 22 27 c39 44 41
75 7 102 l-29 23 30 1 c26 0 27 2 10 9 -11 5 -34 9 -52 9 -17 1 -34 5 -38 11
-3 5 -13 7 -23 4 -9 -3 -3 3 13 13 23 13 50 17 112 17 85 -1 95 5 43 26 -50
21 -24 33 54 25 81 -7 80 2 -4 33 -61 22 -62 22 54 42 76 13 76 13 76 -5 0 -7
6 -18 13 -22 25 -16 39 -57 49 -147 6 -50 11 -103 12 -118 0 -14 4 -30 8 -34
4 -4 5 -18 2 -30 -4 -13 -2 -24 4 -24 15 0 24 31 12 45 -8 9 -8 15 0 20 14 9
13 45 -2 45 -9 0 -9 3 0 12 7 7 12 40 12 78 0 59 16 129 33 146 4 4 7 15 7 24
0 25 72 51 115 42 11 -3 30 -14 42 -25z m-1639 -337 c-21 -62 25 -120 96 -120
31 0 45 7 71 34 24 26 35 32 44 23 6 -6 11 -17 11 -24 0 -6 8 -17 18 -23 16
-11 16 -11 -2 -6 -13 5 -17 2 -12 -9 3 -8 0 -14 -7 -12 -7 1 -11 -3 -10 -9 1
-6 -17 -21 -39 -34 -54 -30 -168 -39 -189 -14 -11 14 -10 18 6 30 16 12 21 12
33 0 10 -10 24 -11 60 -4 81 17 71 28 -25 28 -82 0 -95 3 -119 24 -39 33 -39
89 0 122 15 13 38 24 51 24 22 0 23 -2 13 -30z m1535 -447 c3 -16 13 -100 22
-188 8 -88 19 -182 24 -210 l8 -50 8 54 c9 58 14 55 40 -19 l15 -41 -48 -21
c-199 -85 -272 -122 -277 -139 -6 -18 -25 -27 -25 -11 0 4 30 48 66 97 36 50
80 117 97 150 31 59 32 63 35 220 1 88 5 166 7 173 7 21 22 13 28 -15z m392
-495 c14 -6 28 -23 32 -37 3 -14 14 -37 25 -50 10 -13 18 -32 18 -41 0 -10 7
-23 15 -30 15 -13 65 -104 65 -119 0 -8 -133 -72 -175 -85 -12 -3 -40 4 -69
19 -27 14 -56 25 -63 25 -7 0 -40 11 -73 25 -33 14 -61 25 -63 25 -2 0 -20
-16 -41 -35 -21 -19 -53 -40 -72 -47 -38 -14 -40 -17 -19 -44 8 -10 15 -25 15
-31 0 -16 -52 -43 -85 -43 -20 0 -25 5 -25 24 0 17 -16 37 -51 66 l-50 43 -34
-33 c-32 -31 -37 -32 -84 -26 -47 6 -50 5 -72 -26 -13 -18 -47 -61 -76 -96
-29 -34 -53 -67 -53 -73 0 -5 -4 -7 -10 -4 -5 3 -10 22 -10 41 0 41 -13 44
-37 8 -11 -17 -17 -48 -17 -90 l-1 -64 -40 -16 c-22 -8 -58 -16 -80 -17 -36
-2 -43 -8 -70 -50 -24 -37 -41 -51 -80 -66 -44 -17 -75 -51 -45 -51 16 0 40
-64 40 -108 0 -30 -11 -54 -51 -110 -60 -85 -79 -100 -140 -108 -58 -8 -60
-10 -83 -61 -10 -23 -29 -52 -42 -64 -13 -12 -24 -29 -24 -37 0 -8 -36 -65
-80 -127 -44 -62 -104 -152 -135 -200 -53 -85 -54 -88 -49 -144 5 -46 3 -59
-10 -71 -15 -12 -24 -10 -69 9 -85 37 -209 69 -301 76 -61 5 -86 11 -86 21 0
7 5 16 10 19 6 3 10 13 10 21 0 8 9 25 20 37 14 14 19 30 15 44 -3 15 0 23 12
27 10 3 36 38 58 77 90 159 237 332 467 550 94 89 184 177 200 195 16 18 41
34 56 36 21 2 27 8 27 28 0 20 6 25 24 25 16 0 27 9 33 25 11 31 65 87 145
151 52 42 72 52 125 60 94 15 171 59 304 172 178 152 219 180 243 168 21 -12
34 -2 45 35 8 25 120 80 266 130 78 27 110 33 182 34 48 0 99 -5 113 -12z
m402 -189 c43 -11 84 -22 91 -25 10 -3 5 -16 -17 -46 -61 -87 -46 -127 42
-113 50 9 73 20 107 50 40 36 207 85 291 85 l71 0 -8 -27 c-5 -16 -9 -55 -9
-88 1 -50 6 -68 32 -110 60 -94 65 -105 53 -120 -21 -25 5 -51 68 -69 77 -21
114 -20 146 5 14 11 30 19 34 17 4 -2 35 -32 68 -68 58 -61 62 -69 69 -126 l7
-62 -38 -8 c-58 -14 -64 -34 -29 -101 41 -77 93 -125 170 -159 l65 -28 0 -73
c0 -48 7 -93 20 -130 24 -68 25 -96 5 -113 -20 -17 -19 -43 5 -89 19 -38 19
-39 0 -77 -27 -53 -25 -89 11 -188 31 -85 31 -86 12 -113 -11 -16 -36 -74 -56
-131 -47 -131 -50 -201 -11 -273 l27 -48 -21 -48 c-11 -26 -23 -67 -27 -90 -6
-39 -9 -43 -36 -43 -59 0 -102 -86 -82 -161 9 -35 6 -53 -22 -142 -30 -93 -37
-105 -75 -133 -44 -32 -69 -67 -70 -96 0 -9 -16 -35 -35 -58 -19 -23 -35 -48
-35 -55 0 -8 -16 -22 -35 -31 -30 -14 -68 -64 -112 -146 -11 -22 13 -2 65 52
42 43 66 60 85 60 22 0 28 6 37 40 8 29 17 41 35 46 19 5 25 14 30 47 7 48 25
88 35 82 22 -14 -100 -403 -159 -511 -22 -39 -88 -131 -148 -206 -110 -139
-203 -282 -203 -314 0 -16 2 -15 23 4 13 12 26 22 29 22 6 0 20 -177 21 -280
1 -56 -4 -75 -35 -135 -68 -134 -115 -298 -58 -202 12 21 26 35 30 30 8 -8 30
-103 30 -127 0 -7 -30 -62 -66 -121 -36 -60 -86 -149 -110 -197 -47 -93 -48
-94 -144 -123 -93 -28 -191 -79 -267 -139 -44 -34 -131 -85 -223 -130 l-151
-73 -112 4 c-108 5 -116 4 -227 -32 -88 -29 -140 -39 -225 -45 -60 -4 -132
-13 -158 -20 -46 -12 -163 -10 -185 4 -6 4 -4 21 5 48 22 61 28 184 11 232
-12 37 -61 86 -73 74 -4 -3 1 -32 11 -64 14 -50 15 -70 6 -132 -7 -40 -21 -90
-32 -112 l-20 -40 -88 4 c-82 3 -298 -14 -369 -30 -36 -7 -40 0 -22 40 7 14
28 32 50 40 53 21 49 36 -9 36 -71 0 -131 -35 -161 -94 l-24 -48 -73 4 c-40 2
-78 8 -83 13 -6 6 -16 46 -22 90 -16 114 -43 171 -90 195 -39 20 -61 13 -33
-11 26 -21 50 -88 58 -158 6 -51 5 -63 -6 -58 -178 73 -344 117 -440 117 -51
0 -65 18 -96 118 -45 144 -188 285 -257 254 -36 -16 -31 -29 9 -24 32 4 37 0
74 -55 59 -87 108 -192 116 -247 6 -39 5 -48 -6 -43 -7 3 -55 22 -106 42 -52
20 -152 73 -225 119 -73 45 -153 95 -178 110 -37 21 -52 38 -72 84 -15 32 -27
71 -29 88 -3 39 22 124 36 124 6 0 21 -15 31 -33 19 -30 20 -31 23 -9 7 46
-33 143 -134 328 -113 208 -116 219 -89 323 29 113 123 301 189 377 l23 27 84
-52 c147 -90 363 -149 631 -172 68 -5 153 -13 189 -16 37 -3 111 0 165 7 91
11 384 28 594 35 116 3 140 10 255 69 55 28 103 52 106 54 8 4 33 -72 84 -253
34 -122 119 -363 132 -375 3 -3 2 49 -2 115 -5 66 -9 136 -10 155 -1 19 1 43
4 54 6 16 12 13 44 -24 20 -24 40 -41 43 -37 11 11 -38 140 -107 280 l-67 137
35 15 c113 48 382 106 483 104 45 0 45 0 160 -131 124 -141 195 -226 305 -365
39 -48 98 -117 133 -153 35 -35 71 -78 80 -95 12 -23 17 -26 20 -13 6 29 -32
100 -89 168 -147 175 -469 590 -469 605 0 3 22 5 49 5 73 0 221 -53 364 -132
71 -38 131 -68 134 -64 8 8 -104 112 -175 162 -35 25 -91 58 -124 75 l-61 31
44 25 c43 25 46 25 133 14 49 -7 93 -14 97 -17 4 -2 10 -18 14 -34 10 -45 22
-45 61 -1 26 29 46 42 72 46 87 13 136 27 187 51 l54 27 34 -22 c19 -11 37
-21 41 -21 4 0 14 16 22 36 8 20 24 39 35 41 11 3 50 20 87 38 77 37 202 154
258 243 20 30 49 66 67 81 72 61 74 63 145 246 52 134 79 241 88 350 3 50 14
110 24 135 9 25 20 82 24 127 3 45 13 98 22 118 12 31 13 46 3 89 -11 49 -10
56 15 104 31 61 34 139 11 322 -17 144 -45 250 -85 329 -17 35 -37 96 -45 142
-29 168 -165 374 -283 430 -27 13 -73 50 -106 86 -75 82 -178 133 -322 162
-55 11 -123 29 -152 40 -108 43 -264 44 -367 3 -44 -17 -67 -19 -182 -14
l-133 5 0 51 c0 28 -4 57 -9 65 -11 17 -31 6 -31 -19 0 -10 -3 -20 -7 -22 -5
-1 -21 -20 -36 -40 -15 -21 -39 -41 -52 -44 -14 -3 -25 -9 -25 -13 0 -11 -99
-12 -140 -1 -21 6 -46 18 -55 26 -29 30 -45 10 -38 -47 5 -43 3 -54 -12 -65
-28 -21 -46 -17 -85 16 -19 16 -40 30 -47 30 -19 0 -25 -18 -13 -39 5 -11 16
-49 24 -86 l14 -66 -29 -14 c-32 -17 -63 -20 -54 -5 3 6 1 10 -5 10 -6 0 -9 3
-7 8 3 4 -2 21 -12 39 -12 24 -20 30 -31 23 -12 -7 -12 -18 -4 -61 l11 -52
-44 -26 c-25 -14 -79 -53 -120 -85 -42 -33 -78 -55 -81 -49 -9 13 -42 24 -43
15 -1 -4 -2 -27 -3 -52 -1 -29 -13 -67 -32 -105 -18 -33 -42 -91 -54 -130 -13
-38 -24 -71 -26 -73 -1 -2 -28 3 -61 11 -32 7 -64 12 -71 9 -24 -8 -11 -29 28
-47 23 -10 52 -29 66 -42 22 -20 25 -30 22 -85 -3 -62 -3 -62 -38 -70 -19 -5
-77 -22 -128 -39 -74 -24 -96 -28 -108 -18 -15 12 -19 39 -6 39 4 0 29 19 55
43 l48 42 -26 60 c-15 32 -35 71 -45 86 -19 26 -19 27 2 77 21 49 23 51 72 58
75 10 81 14 125 79 23 33 55 78 72 100 28 36 30 45 26 90 -3 28 -9 64 -12 80
-6 26 -3 33 20 45 15 8 39 32 53 54 23 34 35 41 85 53 31 7 71 20 88 28 30 16
30 18 25 68 -7 51 -6 51 9 25 21 -38 43 -35 60 6 19 45 133 196 148 196 7 0
29 -4 50 -9 34 -8 41 -7 60 15 11 13 26 24 32 24 20 0 48 -38 41 -56 -16 -42
77 -58 149 -25 52 23 68 44 67 86 -1 19 3 35 8 35 4 0 22 11 38 25 l29 25 79
-27 c49 -16 89 -37 104 -54 l26 -27 59 23 c149 56 220 107 279 203 14 23 33
42 41 42 8 0 50 -9 92 -21z m-2147 -200 c58 -58 124 -116 146 -127 53 -27 141
-41 223 -36 74 4 78 13 -37 -85 -36 -30 -61 -60 -58 -67 3 -8 -5 -14 -22 -16
-21 -2 -27 -8 -26 -26 0 -12 -4 -21 -10 -20 -7 2 -47 -32 -90 -75 -43 -43 -83
-76 -89 -74 -6 2 -17 28 -24 58 -8 30 -34 124 -60 209 -25 85 -63 220 -83 300
l-37 145 30 -40 c17 -22 79 -88 137 -146z m2110 -216 c32 -6 32 -6 -24 -24
-57 -17 -126 -57 -126 -72 0 -5 8 -6 19 -2 277 88 595 10 719 -177 13 -21 28
-35 33 -32 27 16 137 -81 200 -178 39 -61 80 -173 94 -256 4 -24 17 -62 30
-85 70 -126 103 -282 106 -498 1 -103 -1 -113 -25 -149 -28 -43 -32 -70 -15
-119 12 -33 5 -86 -11 -76 -4 3 -11 19 -15 35 -4 17 -15 35 -25 40 -36 19
-108 11 -177 -20 -98 -45 -113 -42 -242 45 -62 41 -114 75 -118 75 -3 0 -21
14 -40 31 -34 29 -110 68 -163 84 -14 4 -32 13 -40 20 -22 19 -89 45 -115 45
-13 0 -36 7 -51 15 -16 8 -40 15 -54 15 -14 1 -52 7 -85 15 -33 8 -80 15 -105
15 l-45 -1 31 -27 c78 -67 115 -93 124 -87 6 4 9 2 8 -3 -2 -5 8 -20 22 -34
46 -44 108 -142 135 -212 27 -71 26 -169 -2 -226 -36 -72 -113 -165 -188 -227
-113 -93 -140 -107 -205 -105 -101 4 -153 -34 -142 -106 2 -18 0 -31 -5 -30
-7 3 -117 -65 -133 -82 -10 -11 -148 -89 -215 -122 -38 -19 -79 -40 -90 -46
-24 -14 -250 -118 -275 -127 -6 -2 -38 -16 -120 -50 -67 -29 -65 -29 -275 -21
-22 0 -43 5 -47 11 -5 6 -12 5 -20 -3 -7 -7 -8 -15 -3 -21 13 -13 195 -91 211
-91 31 0 -3 -33 -62 -61 -61 -30 -124 -88 -124 -115 0 -7 -3 -14 -7 -16 -9 -4
-33 -42 -72 -118 -44 -84 -86 -116 -190 -146 -49 -14 -104 -24 -123 -22 l-33
3 52 24 c29 13 50 28 47 33 -3 4 0 8 7 8 19 0 124 114 145 156 39 81 10 243
-53 291 -51 39 -133 56 -268 57 -291 1 -384 -87 -355 -334 l9 -85 57 -55 c32
-30 57 -56 56 -57 -8 -12 2 -23 22 -23 14 0 27 -4 30 -9 6 -9 -70 3 -124 21
-63 20 -211 98 -205 108 3 6 -1 7 -10 4 -9 -4 -15 -3 -13 2 1 5 -10 30 -25 55
-15 26 -45 88 -67 139 -22 51 -55 111 -74 134 -19 23 -41 60 -50 81 -21 49 -9
83 43 131 20 18 44 54 54 81 10 26 25 61 34 76 8 15 13 34 10 41 -5 12 -84 29
-197 41 -195 22 -447 86 -539 138 -122 68 -133 92 -40 81 34 -4 69 -8 78 -8 9
-1 34 -7 56 -13 118 -34 667 -64 794 -44 140 22 191 41 243 92 28 28 48 56 48
69 0 19 -90 120 -107 120 -5 0 -56 40 -98 77 -51 45 -142 116 -165 128 -35 18
-104 36 -175 46 -33 4 -105 14 -160 23 -55 9 -118 16 -140 16 l-40 0 34 -30
c24 -21 41 -29 55 -25 15 5 17 4 7 -3 -11 -8 -8 -14 15 -28 16 -10 62 -51 103
-92 99 -99 93 -105 -79 -86 -275 30 -326 36 -355 44 -30 8 -133 27 -305 55
-52 9 -108 20 -125 25 -62 18 -203 49 -280 60 -44 6 -94 16 -111 21 -17 5 -41
9 -53 9 -12 0 -31 5 -42 10 -16 9 -21 7 -29 -12 -9 -23 -9 -23 -9 3 -2 61 77
254 112 276 6 3 1 -9 -11 -29 -13 -21 -20 -43 -16 -53 5 -13 9 -14 15 -3 7 10
9 10 9 -3 0 -10 24 -25 66 -42 100 -42 105 -24 20 67 -25 27 -46 55 -46 62 0
8 -5 14 -11 14 -19 0 10 29 56 56 57 33 124 52 214 60 126 11 292 -24 330 -69
13 -17 13 -17 -54 -30 -17 -3 -16 -5 8 -15 16 -7 40 -12 53 -12 32 0 152 41
247 84 157 72 309 98 567 99 222 1 291 -12 461 -84 l116 -49 134 10 c73 6 135
12 137 14 7 8 -147 24 -242 26 -17 0 -15 5 15 36 123 128 449 268 677 290 113
10 100 25 -33 36 l-30 3 2 78 c8 255 154 476 370 562 103 41 101 41 105 -1 l3
-38 43 66 c86 134 224 230 388 269 76 18 111 20 234 17 99 -4 158 -10 187 -21
46 -17 60 -10 38 19 -8 10 -15 22 -15 26 -1 21 149 36 220 21z m-2201 -63 c10
-30 8 -33 -123 -168 -73 -75 -146 -152 -162 -171 -16 -18 -40 -45 -53 -59 -19
-21 -82 -98 -119 -147 -49 -64 -253 -449 -301 -568 -13 -31 -28 -57 -33 -57
-5 0 -6 5 -3 10 14 22 -25 119 -60 152 l-36 33 91 138 c50 76 127 181 171 234
44 52 96 119 115 150 20 30 76 93 125 140 49 48 89 91 89 97 1 6 15 20 33 31
18 11 33 30 35 43 2 12 10 22 18 22 15 0 116 81 158 127 28 31 42 29 55 -7z
m-664 -502 c14 -6 25 -16 25 -21 0 -6 -17 -31 -38 -56 -39 -46 -203 -281 -238
-340 -13 -22 -23 -29 -34 -25 -8 4 -41 9 -72 12 -53 4 -58 7 -58 28 0 21 5 23
58 26 l57 3 2 40 c1 22 2 45 2 51 1 7 12 15 26 18 19 5 25 13 25 33 0 31 -41
89 -70 98 -28 9 -25 18 16 47 l35 26 67 -29 c37 -16 74 -29 83 -29 22 0 64 57
73 98 9 37 7 36 41 20z m952 -309 c12 -24 23 -50 23 -57 0 -6 -27 -33 -60 -59
-33 -25 -60 -52 -60 -58 0 -7 9 -20 20 -30 25 -23 26 -42 0 -50 -11 -3 -42
-21 -68 -40 -27 -18 -65 -35 -83 -37 -28 -2 -34 -7 -32 -25 4 -35 -24 -36 -31
-1 -7 33 8 63 100 193 27 39 72 103 99 142 28 40 54 71 60 69 5 -1 19 -22 32
-47z m-1623 -86 c76 -70 161 -98 267 -89 88 7 121 -2 177 -51 27 -22 35 -38
39 -76 3 -28 1 -52 -6 -61 -6 -7 -39 -16 -74 -20 -35 -3 -96 -15 -136 -26 -41
-12 -75 -19 -76 -18 -1 2 -12 24 -23 51 -36 83 -184 218 -272 249 -17 5 -30
16 -30 24 0 20 45 64 66 64 9 0 40 -21 68 -47z m860 -14 c-12 -13 -13 -19 -4
-19 7 0 19 8 27 18 9 11 9 6 -3 -18 -9 -19 -28 -47 -42 -62 -14 -15 -22 -31
-19 -35 4 -3 -2 -16 -12 -27 -11 -12 -19 -24 -18 -27 1 -3 -7 -22 -17 -42 -20
-36 -64 -55 -99 -41 -14 5 -13 11 6 52 12 26 26 49 30 51 5 2 17 23 28 48 10
24 23 42 28 39 4 -3 16 3 26 14 10 11 24 20 32 20 8 0 12 4 9 8 -3 5 4 19 15
30 11 12 17 22 14 22 -3 0 -3 6 2 13 5 9 9 7 11 -6 2 -10 -4 -27 -14 -38z
m-1718 -302 c-91 -93 -145 -200 -197 -392 -25 -94 -29 -102 -40 -84 -19 30 26
229 72 324 44 89 72 125 142 178 80 61 94 46 23 -26z m38 -595 c2 -4 19 -9 38
-10 45 -4 113 -25 182 -56 31 -14 63 -26 70 -26 7 0 19 -6 25 -14 10 -12 8
-18 -11 -29 -17 -11 -65 -16 -185 -19 l-163 -4 -6 33 c-8 41 1 99 17 119 13
16 25 18 33 6z m4486 -106 c0 -23 5 -47 12 -54 27 -27 208 -2 208 28 0 5 9 12
20 15 11 3 20 11 20 16 0 18 30 41 45 35 22 -8 19 -75 -6 -130 -22 -50 -74
-132 -90 -141 -5 -4 -6 -11 -3 -17 4 -6 2 -8 -3 -5 -6 4 -38 -7 -72 -23 -34
-17 -64 -30 -67 -30 -17 0 -176 -86 -202 -109 -56 -50 -70 -59 -107 -71 -20
-7 -55 -12 -76 -12 l-38 1 -12 -57 c-17 -77 -28 -88 -102 -96 -34 -3 -96 -13
-137 -21 -130 -25 -281 -46 -291 -40 -5 4 -9 13 -9 22 0 19 38 63 54 63 6 0
35 18 64 40 29 22 71 52 95 66 23 15 46 33 50 40 4 8 15 14 23 14 9 0 12 5 8
13 -4 6 -4 9 1 5 4 -4 21 0 36 9 25 15 35 16 74 5 97 -26 116 -14 131 78 4 22
10 40 15 40 4 0 54 46 111 103 102 100 198 219 198 243 0 13 29 24 43 17 4 -2
7 -23 7 -47z m789 -222 c-5 -28 -21 -80 -35 -115 -14 -35 -37 -95 -50 -133
-27 -79 -57 -122 -108 -157 -21 -14 -49 -48 -67 -82 -42 -79 -176 -222 -153
-164 2 7 -5 22 -16 34 -11 12 -20 27 -20 33 0 5 -4 10 -10 10 -14 0 -70 101
-70 127 0 13 19 37 52 65 73 61 113 105 144 162 39 70 85 106 183 144 124 47
130 51 142 95 14 54 19 43 8 -19z m-4323 -231 c47 -51 164 -208 164 -220 0
-23 -22 -25 -108 -8 -169 32 -377 117 -377 153 0 12 70 38 235 89 53 16 59 15
86 -14z m3217 -417 c-11 -19 -92 -87 -166 -140 -155 -111 -312 -173 -522 -206
-77 -12 -176 -31 -220 -40 -44 -10 -82 -17 -83 -15 -2 2 29 13 70 25 89 26
121 37 173 60 100 46 183 78 216 84 21 4 48 15 61 26 14 10 56 31 94 45 95 37
114 47 108 57 -3 4 6 8 20 8 14 0 26 3 26 8 0 10 71 48 83 44 5 -2 7 4 4 12
-4 9 -1 13 6 10 7 -2 35 5 62 15 61 24 79 26 68 7z m-3309 -449 l39 -35 -25
-33 c-49 -65 -126 -203 -148 -263 -6 -16 -13 -26 -16 -24 -5 5 20 166 52 341
l17 88 21 -19 c11 -11 38 -35 60 -55z"/>
<path d="M4393 7424 c-14 -30 -30 -85 -35 -122 -10 -61 -9 -71 11 -111 19 -37
22 -53 16 -104 -8 -69 0 -69 39 -3 26 44 33 95 20 143 -5 18 -11 22 -30 17
-34 -9 -41 18 -14 56 13 18 21 43 20 63 -3 51 -1 57 20 57 11 0 19 -3 18 -7
-1 -5 6 -35 16 -68 10 -33 20 -66 23 -74 9 -35 11 1 2 68 -13 105 -27 141 -57
141 -18 0 -28 -11 -49 -56z"/>
<path d="M3375 6368 c-33 -4 -79 -6 -103 -4 -54 5 -140 -25 -167 -59 -12 -14
-26 -25 -33 -25 -16 0 -15 -29 1 -36 8 -3 28 8 46 25 42 40 100 59 196 65 44
3 114 8 155 12 67 6 84 3 169 -25 60 -20 98 -28 104 -22 14 14 -1 31 -27 31
-13 0 -45 9 -70 21 -54 23 -174 31 -271 17z"/>
<path d="M3299 6220 c-31 -4 -61 -10 -68 -14 -6 -4 -11 -32 -11 -62 0 -62 7
-65 79 -39 25 8 84 15 151 16 124 1 133 8 106 74 l-15 36 -93 -2 c-51 -2 -118
-6 -149 -9z"/>
<path d="M2870 3194 c-179 -60 -347 -151 -322 -176 9 -9 102 -25 241 -40 165
-17 322 8 405 65 24 17 27 25 23 53 -7 41 -54 87 -106 103 -54 16 -187 13
-241 -5z"/>
<path d="M4435 93 c-22 -42 -41 -81 -43 -85 -2 -4 21 -8 52 -8 53 0 56 1 56
26 0 14 4 23 10 19 6 -3 10 -15 10 -26 0 -16 7 -19 50 -19 28 0 50 3 50 6 0 6
-72 102 -106 142 -10 12 -23 22 -29 22 -5 0 -28 -35 -50 -77z"/>
</g>
</svg>
